<?xml version="1.0" encoding="utf-8"?>
<!-- Generator: Adobe Illustrator 16.0.0, SVG Export Plug-In . SVG Version: 6.00 Build 0)  -->
<!DOCTYPE svg PUBLIC "-//W3C//DTD SVG 1.1//EN" "http://www.w3.org/Graphics/SVG/1.1/DTD/svg11.dtd">
<svg version="1.1" id="Layer_1" xmlns="http://www.w3.org/2000/svg" xmlns:xlink="http://www.w3.org/1999/xlink" x="0px" y="0px"
	  viewBox="0 0 3000 3000" enable-background="new 0 0 3000 3000" xml:space="preserve">
<g>
	<path fill="#DA1A32" d="M1444.007,1572.9c51.233,0,75.458-3.508,75.458-42.764c0-41.175-24.946-46.189-75.458-46.189
		l-190.302,0.112l-0.03-112.628h184.759c69.234,0,119.726,5.553,156.509,29.889c41.808,28.058,61.749,69.233,61.749,126.021
		c0,99.803-60.457,155.309-172.759,155.328h-86.055v137.287h-144.102l-0.062-247.057H1444.007L1444.007,1572.9z"/>
	<path fill="#DA1A32" d="M1905.468,1359.503c144.143-0.04,232.729,90.377,232.729,236.389
		c0.041,145.975-88.505,236.463-232.667,236.463c-144,0-233.269-90.459-233.269-236.4
		C1672.23,1449.92,1761.406,1359.514,1905.468,1359.503 M1905.529,1719.432c61.098,0,87.396-39.324,87.335-123.539
		c0-84.162-26.237-123.487-87.396-123.487c-61.078,0-87.925,39.315-87.925,123.518
		C1817.543,1680.137,1844.39,1719.432,1905.529,1719.432"/>
	<path fill="#DA1A32" d="M2304.701,1671.301c3.713,39.324,27.885,54.285,67.099,54.285c35.014,0,54.325-13.068,54.325-32.381
		c0-28.148-26.135-30.631-79.23-44.299c-62.369-16.209-102.925-29.979-121.678-43.027c-34.922-24.936-51.742-59.277-51.742-103.605
		c0-86.655,68.624-142.841,188.339-142.841c116.055-0.021,188.217,52.037,192.864,149.675h-136.637
		c-0.295-34.943-23.756-47.97-58.688-47.97c-30.528,0-45.549,9.986-45.549,30.529c0,23.736,23.085,28.138,66.752,39.326
		c55.475,14.328,99.794,23.023,128.573,42.438c39.265,26.135,57.366,58.586,57.366,104.715c0,97.332-69.875,154.158-200.868,154.158
		c-120.427,0-195.722-57.01-200.074-160.951L2304.701,1671.301z"/>
	<polygon fill="#DA1A32" points="2697.417,1489.124 2568.274,1489.175 2568.274,1371.24 2968.078,1371.199 2968.119,1489.124 
		2841.438,1489.124 2841.539,1819.795 2697.458,1819.795 	"/>
	<path fill="#DA1A32" d="M1279.892,1276.083l-8.675,30.346h-20.593l39.996-127.332h21.61l38.919,127.332h-20.705l-8.269-30.346
		H1279.892z M1301.268,1204.266l-16.494,54.59h32.349L1301.268,1204.266z"/>
	<path fill="#DA1A32" d="M1374.295,1179.117v76.607v3.691c0,14.044,0.498,24.732,7.495,34.535
		c7.22,10.058,17.187,14.532,32.318,14.532c12.926,0,22.332-3.091,28.729-9.487c7.779-7.729,11.389-20.624,11.389-40.465v-79.424
		h-18.284v79.251v2.807c0,9.61-0.214,16.332-3.336,21.498c-3.854,6.458-9.915,9.601-18.487,9.601c-8.522,0-14.35-3.041-18.285-9.62
		c-3.203-5.309-3.468-12.051-3.468-21.682v-2.583v-79.251h-18.071V1179.117z"/>
	<path fill="#DA1A32" d="M1484.369,1269.117c0,0.672-0.04,1.292-0.092,1.923c-0.03,0.62-0.102,1.24-0.102,1.851
		c0,11.38,3.031,20.176,9,26.095c6.377,6.325,15.997,9.488,28.709,9.488c13.088,0,23.176-3.478,30.071-10.332
		c6.193-6.152,9.315-14.767,9.315-25.403c0-15.773-9.834-23.359-24.865-33.102l-6.955-4.506
		c-15.691-10.058-24.316-15.559-24.316-26.847c0-3.997,1.547-7.729,4.354-10.587c3.355-3.336,8.247-5.176,13.8-5.176
		c5.339,0,9.519,1.443,12.295,4.261c3.183,3.173,4.79,8.125,4.79,14.776v2.563v1.291h1.25h17.177h1.271v-1.291v-3.102
		c0-10.495-2.959-18.824-8.816-24.641c-6.214-6.214-15.396-9.387-27.295-9.387c-22.871,0-38.207,13.343-38.207,33.152
		c0,18.519,9.793,25.658,28.556,37.668l5.044,3.193c14.045,8.797,22.566,14.095,22.566,24.111c0,10.322-8.298,17.827-19.719,17.827
		c-5.44,0-9.417-1.302-12.092-3.996c-3.335-3.366-4.962-9.112-4.962-17.594v-2.257v-1.271h-1.282h-18.213h-1.271v1.291H1484.369z"/>
	<polygon fill="#DA1A32" points="1622.594,1194.473 1622.594,1306.45 1603.566,1306.45 1603.566,1194.473 1572.895,1194.473 
		1572.895,1179.117 1652.339,1179.117 1652.339,1194.473 	"/>
	<path fill="#DA1A32" d="M1731.336,1240.5c12.314,3.173,15.091,12.936,15.091,26.542c0,2.613-0.081,4.942-0.122,7.23
		c0,1.912-0.04,3.732-0.04,5.421c0,9.346,1.037,17.552,3.214,25.108l0.498,1.637h-1.709h-17.044h-0.976l-0.234-0.925
		c-2.645-8.553-2.756-18.112-2.756-28.21c-0.081-3.469-0.122-7.048-0.214-10.78c-0.355-12.977-3.691-17.104-13.627-17.104h-18.447
		v55.729v1.291h-1.271h-16.506h-1.271v-1.291v-124.749v-1.271h1.271h32.715c15.193,0,25.679,3,31.943,9.244
		c5.064,5.064,7.505,12.295,7.505,22.017C1749.355,1225.632,1743.447,1235.558,1731.336,1240.5 M1725.977,1199.121
		c-2.96-3-7.587-4.505-13.77-4.505h-17.238v38.776h10.791c17.44,0,24.549-6.092,24.549-20.949
		C1730.299,1206.494,1728.854,1201.989,1725.977,1199.121"/>
	<path fill="#DA1A32" d="M1843.516,1276.083h-42.224l-8.624,30.346h-20.613l40.007-127.332h21.569l38.949,127.332h-20.675
		L1843.516,1276.083z M1822.668,1204.266l-16.465,54.59h32.278L1822.668,1204.266z"/>
	<polygon fill="#DA1A32" points="1916.237,1289.538 1916.237,1179.117 1897.343,1179.117 1897.343,1306.439 1958.776,1306.439 
		1958.776,1289.538 	"/>
	<polygon fill="#DA1A32" points="1979.695,1306.429 1996.516,1306.429 1997.787,1306.429 1997.787,1305.168 1997.787,1180.409 
		1997.787,1179.097 1996.516,1179.097 1979.695,1179.097 1978.465,1179.097 1978.465,1180.409 1978.465,1305.168 1978.465,1306.429 
			"/>
	<path fill="#DA1A32" d="M2093.959,1276.083h-42.284l-8.665,30.346h-20.552l39.986-127.332h21.569l38.929,127.332h-20.675
		L2093.959,1276.083z M2073.03,1204.266l-16.464,54.59h32.359L2073.03,1204.266z"/>
	<path fill="#DA1A32" d="M1022.573,984.015H73.169c-22.81,0-41.288,18.509-41.288,41.299v949.424
		c0,22.77,18.478,41.246,41.288,41.246h949.404c22.779,0,41.277-18.467,41.277-41.246v-949.424
		C1063.841,1002.534,1045.353,984.015,1022.573,984.015"/>
	<path fill="#FFFFFF" d="M429.071,1813.846c-126.61-48.041-216.58-170.338-216.58-313.861c0-143.502,89.969-265.81,216.58-313.81
		V1813.846z"/>
	<path fill="#FFFFFF" d="M547.851,1835.385c-9.274,0-18.498-0.244-27.56-1.057v-213.072
		c127.099,0.123,230.645-95.49,231.488-214.301c0.916-119.329-101.989-216.804-229.8-217.729h-1.688v-23.573
		c9.062-0.702,18.295-1.027,27.56-1.027c185.166,0,335.421,150.133,335.421,335.359
		C883.261,1685.223,733.017,1835.385,547.851,1835.385"/>
</g>
</svg>
