<svg width="65" height="22" viewBox="0 0 65 22" fill="none" xmlns="http://www.w3.org/2000/svg">
<path d="M28.2114 20.9623H23.0762L26.2881 1.10205H31.4231L28.2114 20.9623Z" fill="#D3D3D3"/>
<path d="M46.8272 1.58772C45.8143 1.18587 44.2077 0.742188 42.2213 0.742188C37.1501 0.742188 33.5789 3.44643 33.557 7.31267C33.5149 10.1652 36.1138 11.7495 38.0576 12.7006C40.0444 13.6725 40.7198 14.3069 40.7198 15.1732C40.6995 16.5037 39.1143 17.117 37.6359 17.117C35.5856 17.117 34.4871 16.8008 32.8177 16.0606L32.1415 15.7433L31.4229 20.2015C32.6273 20.7502 34.8463 21.2371 37.15 21.2584C42.5383 21.2584 46.0462 18.5961 46.0878 14.476C46.1083 12.2151 44.736 10.4828 41.7773 9.0672C39.9812 8.15848 38.8813 7.54575 38.8813 6.61597C38.9023 5.77072 39.8116 4.90497 41.8391 4.90497C43.5085 4.86257 44.7351 5.26385 45.6643 5.66542L46.1288 5.87631L46.8272 1.58772V1.58772Z" fill="#D3D3D3"/>
<path d="M53.6521 13.9265C54.075 12.7856 55.7023 8.36979 55.7023 8.36979C55.681 8.4122 56.1244 7.20779 56.378 6.4684L56.7368 8.17968C56.7368 8.17968 57.7093 12.9336 57.9205 13.9265C57.1179 13.9265 54.6664 13.9265 53.6521 13.9265ZM59.9909 1.10205H56.0188C54.7939 1.10205 53.8633 1.46093 53.3348 2.74987L45.707 20.9621H51.0953C51.0953 20.9621 51.9824 18.5108 52.1731 17.9829C52.7642 17.9829 58.0058 17.9829 58.7663 17.9829C58.9137 18.6802 59.379 20.9621 59.379 20.9621H64.1338L59.9909 1.10205V1.10205Z" fill="#D3D3D3"/>
<path d="M18.7874 1.10205L13.7583 14.6449L13.2087 11.8982C12.2789 8.72895 9.36296 5.28562 6.10889 3.57349L10.7154 20.9413H16.1457L24.2174 1.10205H18.7874V1.10205Z" fill="#D3D3D3"/>
<path d="M9.08833 1.10205H0.826224L0.741699 1.50333C7.18666 3.15143 11.455 7.1241 13.2087 11.8991L11.4126 2.77149C11.1169 1.50305 10.2082 1.14389 9.08833 1.10205Z" fill="#909090"/>
</svg>
